<?xml version="1.0" encoding="UTF-8" standalone="no"?>
<!DOCTYPE svg PUBLIC "-//W3C//DTD SVG 1.1//EN" "http://www.w3.org/Graphics/SVG/1.1/DTD/svg11.dtd">
<svg width="100%" height="100%" viewBox="0 0 3328 257" version="1.1" xmlns="http://www.w3.org/2000/svg" xmlns:xlink="http://www.w3.org/1999/xlink" xml:space="preserve" xmlns:serif="http://www.serif.com/" style="fill-rule:evenodd;clip-rule:evenodd;stroke-linejoin:round;stroke-miterlimit:2;">
    <g transform="matrix(1.1518,0,0,1.1518,1721.61,0)">
        <g opacity="0.06">
            <g transform="matrix(1,0,0,1,-1485.29,0)">
                <path d="M-9.43,22.73L51.84,22.72L51.84,176.03L119.48,176.03L119.48,217.87L-9.42,217.88L-9.43,22.73Z" style="fill:rgb(37,30,28);fill-rule:nonzero;"/>
            </g>
            <g transform="matrix(1,0,0,1,-1485.29,0)">
                <path d="M226.06,210.4C214.89,216.87 202.5,220.11 188.92,220.1C180.88,220.1 173.72,218.76 167.43,216.08C161.16,213.39 155.87,209.59 151.57,204.63C147.28,199.69 144.02,193.71 141.81,186.69C139.59,179.67 138.48,171.86 138.48,163.26L138.48,75.68L198.63,75.67L198.63,160.5C198.63,165.02 199.83,168.42 202.24,170.68C204.64,172.94 207.69,174.08 211.39,174.08C215.09,174.08 218.97,172.97 223.03,170.76L226.06,210.4ZM137.35,28.55C137.35,24.39 138.25,20.56 140.06,17.04C141.86,13.53 144.24,10.5 147.19,7.96C150.15,5.42 153.57,3.45 157.45,2.07C161.33,0.69 165.36,0 169.51,0C174.32,0 178.68,0.86 182.6,2.56C186.53,4.27 189.88,6.49 192.65,9.21C195.42,11.94 197.57,14.99 199.1,18.36C200.62,21.73 201.39,25.13 201.38,28.55C201.39,32.8 200.5,36.69 198.75,40.19C196.99,43.7 194.63,46.74 191.68,49.27C188.73,51.81 185.33,53.79 181.49,55.23C177.65,56.66 173.66,57.37 169.51,57.37C164.98,57.37 160.75,56.63 156.82,55.15C152.89,53.68 149.5,51.62 146.63,48.99C143.76,46.36 141.51,43.31 139.84,39.85C138.18,36.39 137.35,32.62 137.35,28.55Z" style="fill:rgb(37,30,28);fill-rule:nonzero;"/>
            </g>
            <g transform="matrix(1,0,0,1,-1485.29,0)">
                <path d="M322.1,42.69C316.56,42.69 312.25,44.05 309.15,46.78C306.05,49.5 304.5,53.5 304.5,58.77C304.51,63.76 306.12,69.39 309.35,75.69L349,75.68L349,110.88L313.24,110.87L313.24,217.87L253.36,217.87L253.36,110.87L235.61,110.87L235.61,75.67L253.36,75.67C253.36,62.46 254.3,51.1 256.2,41.58C258.09,32.05 261.13,24.21 265.28,18.02C269.44,11.83 274.79,7.28 281.37,4.36C287.93,1.46 295.88,0 305.21,0C319.81,0 335.24,3.61 351.5,10.81L349.56,49.34C338.74,44.91 329.6,42.69 322.1,42.69Z" style="fill:rgb(37,30,28);fill-rule:nonzero;"/>
            </g>
            <g transform="matrix(1,0,0,1,-1485.29,0)">
                <path d="M448.52,180.32C461.46,180.32 475.41,176.99 490.38,170.35L497.31,208.46C480.12,216.23 460.81,220.1 439.38,220.1C427.46,220.11 416.57,218.28 406.74,214.63C396.88,210.98 388.45,205.89 381.36,199.38C374.3,192.87 368.8,185.13 364.88,176.17C360.95,167.21 358.99,157.46 358.99,146.92C358.99,135.84 361.04,125.79 365.17,116.77C369.27,107.76 374.89,100.05 381.99,93.63C389.11,87.21 397.44,82.26 406.95,78.8C416.46,75.34 426.63,73.6 437.44,73.6C448.35,73.6 457.9,75.43 466.14,79.08C474.37,82.73 481.22,87.72 486.71,94.05C492.2,100.38 496.32,107.76 499.06,116.23C501.77,124.69 503.14,133.72 503.14,143.34C503.14,144.62 503.09,145.87 503,147.07C502.9,148.28 502.77,149.43 502.58,150.54L417.48,161.62C419.69,168.28 423.39,173.06 428.56,175.97C433.74,178.87 440.38,180.33 448.52,180.32ZM459.05,125.85C455.82,114.02 448.61,108.1 437.44,108.1C433.91,108.1 430.79,108.79 428.01,110.19C425.24,111.58 422.9,113.48 421.01,115.94C419.12,118.38 417.66,121.3 416.65,124.66C415.62,128.04 415.08,131.67 414.98,135.55L459.05,125.85Z" style="fill:rgb(37,30,28);fill-rule:nonzero;"/>
            </g>
            <g transform="matrix(1,0,0,1,-1485.29,0)">
                <path d="M663.9,210.4C652.73,216.87 640.35,220.1 626.76,220.1C618.72,220.11 611.56,218.77 605.28,216.09C598.99,213.4 593.7,209.6 589.4,204.64C585.11,199.7 581.85,193.72 579.64,186.7C577.42,179.68 576.31,171.87 576.31,163.27L576.31,75.69L636.47,75.68L636.47,160.5C636.46,165.03 637.67,168.43 640.07,170.69C642.47,172.95 645.52,174.09 649.23,174.09C652.91,174.09 656.8,172.98 660.86,170.77L663.9,210.4ZM575.2,28.55C575.2,24.39 576.1,20.57 577.91,17.04C579.71,13.53 582.09,10.5 585.04,7.96C588,5.42 591.43,3.45 595.3,2.07C599.19,0.69 603.2,0 607.35,0C612.16,0 616.52,0.86 620.44,2.56C624.37,4.27 627.72,6.49 630.5,9.22C633.28,11.95 635.41,15 636.95,18.36C638.47,21.73 639.23,25.14 639.22,28.55C639.23,32.8 638.35,36.68 636.59,40.19C634.83,43.7 632.48,46.73 629.52,49.27C626.57,51.81 623.17,53.79 619.33,55.23C615.49,56.66 611.52,57.37 607.35,57.37C602.82,57.37 598.59,56.63 594.66,55.15C590.73,53.68 587.34,51.62 584.48,49C581.62,46.36 579.35,43.31 577.69,39.85C576.03,36.39 575.21,32.62 575.2,28.55Z" style="fill:rgb(37,30,28);fill-rule:nonzero;"/>
            </g>
            <g transform="matrix(1,0,0,1,-1485.29,0)">
                <path d="M741.94,108.94C730.68,108.94 725.03,110.87 725.03,114.77C725.03,116.23 725.45,117.55 726.28,118.71C727.11,119.87 728.22,120.89 729.61,121.76C731,122.64 732.52,123.35 734.18,123.92C735.85,124.47 737.5,124.83 739.17,125.02C746.47,126.13 753.23,127.82 759.48,130.09C765.71,132.35 771.12,135.37 775.68,139.16C780.27,142.95 783.87,147.59 786.5,153.09C789.14,158.59 790.46,165.13 790.46,172.7C790.45,180.18 789.14,186.85 786.49,192.73C783.87,198.6 780.19,203.56 775.48,207.63C770.76,211.69 765.22,214.79 758.85,216.91C752.47,219.04 745.55,220.1 738.06,220.11C725.96,220.11 714.89,219.55 704.87,218.44C694.83,217.33 685.67,214.92 677.36,211.23L683.74,178.52C686.78,179.35 689.44,180.09 691.7,180.73C693.96,181.38 695.83,181.84 697.32,182.12C698.71,182.39 700.46,182.75 702.59,183.17C704.71,183.58 706.99,183.97 709.44,184.35C711.9,184.72 714.37,185.04 716.86,185.32C719.36,185.59 721.62,185.74 723.66,185.74C733.09,185.74 737.8,183.52 737.8,179.09C737.52,177.33 736.81,175.78 735.66,174.45C734.5,173.1 733.04,171.95 731.29,170.98C729.53,170.01 727.52,169.2 725.25,168.55C723,167.9 720.62,167.35 718.12,166.89C710.91,165.51 704.56,163.66 699.06,161.34C693.57,159.03 688.97,156.06 685.27,152.4C681.57,148.74 678.78,144.27 676.88,138.95C674.98,133.63 674.04,127.33 674.04,120.04C674.41,111.72 676.16,104.63 679.31,98.75C682.45,92.89 686.7,88.08 692.05,84.34C697.42,80.6 703.72,77.87 710.98,76.17C718.22,74.45 726.15,73.6 734.75,73.6C743.71,73.6 752.16,74.09 760.11,75.06C768.05,76.03 775.5,78.18 782.42,81.5L776.32,115.33C762.45,111.06 750.99,108.94 741.94,108.94Z" style="fill:rgb(37,30,28);fill-rule:nonzero;"/>
            </g>
            <g transform="matrix(1,0,0,1,-1485.29,0)">
                <path d="M899.39,64.03L858.92,64.04L858.92,22.72L1006.12,22.73L1006.12,64.04L965.64,64.03L965.64,217.89L899.39,217.89L899.39,64.03Z" style="fill:rgb(37,30,28);fill-rule:nonzero;"/>
            </g>
            <g transform="matrix(1,0,0,1,-1485.29,0)">
                <path d="M1111.17,180.32C1124.11,180.32 1138.06,176.99 1153.03,170.34L1159.96,208.46C1142.78,216.22 1123.46,220.1 1102.03,220.1C1090.11,220.1 1079.23,218.28 1069.39,214.63C1059.53,210.98 1051.1,205.89 1044.02,199.39C1036.95,192.87 1031.45,185.13 1027.54,176.17C1023.59,167.21 1021.63,157.46 1021.63,146.92C1021.63,135.84 1023.68,125.79 1027.81,116.77C1031.91,107.76 1037.53,100.05 1044.64,93.63C1051.76,87.21 1060.07,82.26 1069.59,78.8C1079.1,75.34 1089.27,73.6 1100.08,73.6C1110.99,73.6 1120.56,75.43 1128.78,79.08C1137.01,82.73 1143.86,87.72 1149.36,94.06C1154.85,100.38 1158.96,107.77 1161.7,116.23C1164.42,124.68 1165.78,133.72 1165.78,143.34C1165.78,144.62 1165.73,145.87 1165.64,147.07C1165.55,148.27 1165.41,149.43 1165.22,150.54L1080.12,161.62C1082.34,168.28 1086.03,173.06 1091.2,175.97C1096.39,178.87 1103.04,180.32 1111.17,180.32ZM1121.71,125.85C1118.48,114.02 1111.27,108.1 1100.1,108.1C1096.58,108.1 1093.45,108.79 1090.67,110.18C1087.89,111.57 1085.57,113.48 1083.67,115.93C1081.77,118.38 1080.32,121.29 1079.31,124.66C1078.3,128.04 1077.74,131.66 1077.65,135.55L1121.71,125.85Z" style="fill:rgb(37,30,28);fill-rule:nonzero;"/>
            </g>
            <g transform="matrix(1,0,0,1,-1485.29,0)">
                <path d="M1294.41,122.8C1284.43,119.66 1275.19,118.1 1266.68,118.1C1262.34,118.1 1258.45,118.79 1254.97,120.18C1251.51,121.57 1248.55,123.51 1246.1,126.01C1243.66,128.51 1241.76,131.52 1240.43,135.08C1239.08,138.65 1238.42,142.58 1238.42,146.93C1238.42,151.28 1239.09,155.21 1240.43,158.78C1241.76,162.33 1243.68,165.41 1246.18,168.01C1248.68,170.58 1251.69,172.58 1255.26,173.96C1258.81,175.35 1262.81,176.04 1267.25,176.03C1275.66,176.04 1284.53,174.46 1293.86,171.33L1299.41,210.96C1292.29,214.66 1285.34,217.11 1278.54,218.32C1271.76,219.51 1264.39,220.11 1256.44,220.11C1245.25,220.11 1234.96,218.36 1225.53,214.85C1216.11,211.33 1207.97,206.4 1201.13,200.02C1194.3,193.64 1188.96,185.95 1185.12,176.94C1181.28,167.93 1179.37,157.93 1179.36,146.93C1179.37,135.93 1181.44,125.93 1185.61,116.93C1189.77,107.91 1195.37,100.2 1202.45,93.79C1209.51,87.36 1217.71,82.4 1227.04,78.88C1236.38,75.37 1246.17,73.61 1256.43,73.61C1260.96,73.61 1265.04,73.77 1268.7,74.11C1272.33,74.42 1275.83,75.02 1279.17,75.9C1282.49,76.79 1285.81,77.96 1289.14,79.44C1292.47,80.92 1296.07,82.8 1299.95,85.12L1294.41,122.8Z" style="fill:rgb(37,30,28);fill-rule:nonzero;"/>
            </g>
            <g transform="matrix(1,0,0,1,-1485.29,0)">
                <path d="M1320.88,30.77L1380.76,21.9L1380.76,107.27C1385.56,95.54 1391.91,87 1399.82,81.64C1407.71,76.28 1416.98,73.6 1427.61,73.6C1436.21,73.6 1444.19,75.34 1451.59,78.8C1458.99,82.26 1465.43,87.16 1470.92,93.49C1476.42,99.83 1480.75,107.42 1483.88,116.29C1487.01,125.16 1488.6,135 1488.6,145.81L1488.6,217.88L1429,217.89L1429,146.92C1429,143.33 1428.49,139.81 1427.47,136.39C1426.46,132.97 1425.08,129.95 1423.31,127.31C1421.56,124.68 1419.46,122.58 1417.01,121C1414.55,119.43 1411.9,118.66 1409.03,118.65C1404.97,118.65 1401.2,119.45 1397.73,121.07C1394.27,122.68 1391.29,124.89 1388.79,127.64C1386.29,130.42 1384.33,133.63 1382.91,137.28C1381.46,140.93 1380.75,144.79 1380.75,148.84L1380.75,217.86L1320.87,217.86L1320.87,30.77L1320.88,30.77Z" style="fill:rgb(37,30,28);fill-rule:nonzero;"/>
            </g>
            <g transform="matrix(1,0,0,1,-1485.29,0)">
                <path d="M1566.89,193.49C1566.9,189.24 1567.77,185.36 1569.53,181.85C1571.28,178.33 1573.66,175.33 1576.67,172.84C1579.67,170.34 1583.12,168.4 1586.99,167.02C1590.88,165.63 1594.9,164.94 1599.05,164.94C1603.31,164.94 1607.37,165.68 1611.25,167.15C1615.14,168.63 1618.54,170.67 1621.44,173.26C1624.36,175.84 1626.65,178.87 1628.37,182.33C1630.08,185.79 1630.94,189.52 1630.94,193.49C1630.94,197.65 1630.03,201.51 1628.24,205.06C1626.43,208.62 1624.05,211.67 1621.09,214.21C1618.14,216.75 1614.75,218.74 1610.9,220.18C1607.06,221.61 1603.11,222.32 1599.06,222.32C1594.62,222.32 1590.43,221.58 1586.5,220.11C1582.58,218.62 1579.17,216.57 1576.24,213.93C1573.34,211.3 1571.05,208.25 1569.39,204.79C1567.73,201.32 1566.9,197.56 1566.89,193.49ZM1568.01,65.98L1568,21.9L1627.88,21.9L1627.89,65.98L1616.8,146.36L1579.37,146.36L1568.01,65.98Z" style="fill:rgb(37,30,28);fill-rule:nonzero;"/>
            </g>
            <g transform="matrix(1,0,0,1,-1485.29,0)">
                <path d="M1766.35,22.73L1825.4,22.72L1874.19,117.53L1921.87,22.72L1980.92,22.73L1980.92,217.88L1921.87,217.87L1921.87,113.64L1885.84,181.84L1861.72,181.84L1825.41,113.64L1825.41,217.87L1766.36,217.88L1766.36,22.73L1766.35,22.73Z" style="fill:rgb(37,30,28);fill-rule:nonzero;"/>
            </g>
            <g transform="matrix(1,0,0,1,-1485.29,0)">
                <path d="M2096.22,180.33C2109.16,180.33 2123.11,176.98 2138.08,170.34L2145.01,208.46C2127.83,216.22 2108.51,220.1 2087.08,220.11C2075.16,220.11 2064.28,218.27 2054.44,214.63C2044.59,210.98 2036.14,205.89 2029.07,199.37C2022.01,192.86 2016.5,185.13 2012.58,176.16C2008.65,167.2 2006.7,157.45 2006.7,146.91C2006.69,135.82 2008.75,125.77 2012.85,116.76C2016.95,107.75 2022.58,100.04 2029.69,93.62C2036.81,87.2 2045.12,82.25 2054.64,78.79C2064.17,75.33 2074.32,73.59 2085.14,73.59C2096.04,73.59 2105.6,75.42 2113.82,79.07C2122.05,82.72 2128.9,87.72 2134.4,94.03C2139.9,100.37 2144.01,107.76 2146.74,116.21C2149.46,124.66 2150.82,133.7 2150.82,143.31C2150.82,144.62 2150.77,145.85 2150.68,147.05C2150.59,148.25 2150.45,149.41 2150.27,150.52L2065.17,161.61C2067.38,168.25 2071.08,173.05 2076.26,175.95C2081.44,178.87 2088.09,180.33 2096.22,180.33ZM2106.76,125.85C2103.52,114.02 2096.31,108.1 2085.12,108.1C2081.62,108.1 2078.47,108.79 2075.7,110.18C2072.93,111.57 2070.58,113.48 2068.7,115.93C2066.81,118.38 2065.35,121.29 2064.34,124.66C2063.33,128.04 2062.77,131.66 2062.68,135.55L2106.76,125.85Z" style="fill:rgb(37,30,28);fill-rule:nonzero;"/>
            </g>
            <g transform="matrix(1,0,0,1,-1485.29,0)">
                <path d="M2171.34,77.77L2228.45,77.77L2228.45,106.73C2233.99,95.54 2241.13,87.23 2249.87,81.78C2258.59,76.33 2268.83,73.6 2280.57,73.6C2289.99,73.6 2298.31,75.36 2305.52,78.87C2312.73,82.39 2318.8,87.35 2323.74,93.77C2328.69,100.19 2332.42,107.9 2334.98,116.91C2337.51,125.92 2338.78,135.92 2338.78,146.92L2338.79,217.89L2279.19,217.88L2279.19,141.1C2279.19,137.41 2278.84,133.99 2278.15,130.85C2277.45,127.71 2276.34,125 2274.82,122.74C2273.29,120.48 2271.38,118.72 2269.07,117.47C2266.76,116.23 2263.93,115.6 2260.62,115.6C2256.54,115.6 2252.81,116.59 2249.38,118.58C2245.97,120.57 2242.98,122.99 2240.45,125.86C2237.9,128.72 2235.84,131.7 2234.28,134.8C2232.7,137.9 2231.69,140.55 2231.22,142.77L2231.22,217.88L2171.34,217.88L2171.34,77.77Z" style="fill:rgb(37,30,28);fill-rule:nonzero;"/>
            </g>
            <g transform="matrix(1,0,0,1,-1485.29,0)">
                <path d="M2468.49,210.4C2455.64,216.87 2441.43,220.11 2425.8,220.1C2417.77,220.11 2410.6,218.78 2404.32,216.15C2398.03,213.52 2392.76,209.73 2388.44,204.79C2384.14,199.84 2380.89,193.89 2378.68,186.9C2376.46,179.92 2375.35,172.04 2375.35,163.26L2375.63,110.88L2357.61,110.89L2357.61,75.69L2380.07,75.68L2406.41,21.9L2435.24,21.9L2435.24,75.68L2467.95,75.67L2467.95,110.87L2435.24,110.88L2435.24,159.1C2435.24,164.09 2436.85,167.84 2440.09,170.33C2443.33,172.84 2447.71,174.08 2453.27,174.09C2457.61,174.09 2461.94,172.97 2466.29,170.76L2468.49,210.4Z" style="fill:rgb(37,30,28);fill-rule:nonzero;"/>
            </g>
            <g transform="matrix(1,0,0,1,-1485.29,0)">
                <path d="M2482.78,146.64C2483.25,134.72 2485.71,124.24 2490.2,115.18C2494.69,106.12 2500.61,98.5 2508,92.31C2515.4,86.12 2523.96,81.45 2533.7,78.31C2543.45,75.17 2553.84,73.59 2564.83,73.6C2576.83,73.59 2587.84,75.4 2597.82,79C2607.79,82.59 2616.39,87.61 2623.6,94.04C2630.8,100.46 2636.39,108.15 2640.36,117.11C2644.34,126.07 2646.33,135.92 2646.33,146.64C2646.33,155.32 2645.19,163.17 2642.92,170.2C2640.67,177.23 2637.6,183.44 2633.71,188.84C2629.82,194.24 2625.26,198.93 2619.98,202.91C2614.73,206.88 2609.04,210.14 2602.94,212.68C2596.84,215.23 2590.53,217.09 2584.02,218.29C2577.51,219.5 2571.01,220.09 2564.54,220.1C2552.34,220.09 2541.23,218.32 2531.2,214.76C2521.16,211.21 2512.57,206.19 2505.36,199.73C2498.14,193.26 2492.57,185.52 2488.65,176.5C2484.74,167.5 2482.78,157.54 2482.78,146.64ZM2538.21,146.64C2538.21,151.81 2538.98,156.35 2540.51,160.23C2542.03,164.1 2544.04,167.34 2546.54,169.93C2549.03,172.51 2551.9,174.45 2555.13,175.74C2558.36,177.03 2561.64,177.67 2564.97,177.69C2568.3,177.68 2571.56,177.04 2574.73,175.74C2577.93,174.45 2580.79,172.51 2583.32,169.92C2585.87,167.34 2587.91,164.1 2589.44,160.22C2590.97,156.34 2591.73,151.81 2591.73,146.64C2591.73,141.47 2590.97,136.92 2589.43,133.05C2587.92,129.18 2585.87,125.95 2583.33,123.41C2580.79,120.87 2577.93,118.95 2574.73,117.66C2571.55,116.37 2568.3,115.73 2564.96,115.72C2561.63,115.73 2558.35,116.37 2555.13,117.66C2551.9,118.96 2549.03,120.88 2546.53,123.41C2544.03,125.96 2542.02,129.17 2540.51,133.04C2538.97,136.94 2538.21,141.47 2538.21,146.64Z" style="fill:rgb(37,30,28);fill-rule:nonzero;"/>
            </g>
            <g transform="matrix(1,0,0,1,-1485.29,0)">
                <path d="M2667.67,77.76L2727.55,77.76L2727.55,106.72C2732.08,95.27 2738.11,86.88 2745.65,81.57C2753.18,76.26 2761.83,73.6 2771.63,73.6L2779.95,120.04C2761.94,120.05 2748.71,121.96 2740.24,125.8C2731.79,129.63 2727.55,135.74 2727.55,144.16L2727.55,217.89L2667.67,217.89L2667.67,77.76Z" style="fill:rgb(37,30,28);fill-rule:nonzero;"/>
            </g>
        </g>
    </g>
</svg>
