<?xml version="1.0" standalone="no"?><svg xmlns="http://www.w3.org/2000/svg" viewBox="0 0 1440 320"><path fill="#ef862c" fill-opacity="1" d="M0,160L34.3,144C68.6,128,137,96,206,117.3C274.3,139,343,213,411,240C480,267,549,245,617,197.3C685.7,149,754,75,823,58.7C891.4,43,960,85,1029,101.3C1097.1,117,1166,107,1234,90.7C1302.9,75,1371,53,1406,42.7L1440,32L1440,320L1405.7,320C1371.4,320,1303,320,1234,320C1165.7,320,1097,320,1029,320C960,320,891,320,823,320C754.3,320,686,320,617,320C548.6,320,480,320,411,320C342.9,320,274,320,206,320C137.1,320,69,320,34,320L0,320Z"></path></svg>